<?xml version="1.0" standalone="no"?><!DOCTYPE svg PUBLIC "-//W3C//DTD SVG 1.1//EN" "http://www.w3.org/Graphics/SVG/1.1/DTD/svg11.dtd"><svg t="1504421151262" class="icon" style="" viewBox="0 0 1024 1024" version="1.1" xmlns="http://www.w3.org/2000/svg" p-id="1858" xmlns:xlink="http://www.w3.org/1999/xlink" width="200" height="200"><defs><style type="text/css"></style></defs><path d="M245.456 143.712c-80.192 49.408-130.08 141.152-130.08 239.36 0 12.032 9.888 21.76 22.144 21.76 12.224 0 22.08-9.728 22.08-21.76 0-83.36 41.92-160.992 109.344-202.496 10.336-6.4 13.504-19.84 7.008-30.016C269.552 140.448 255.92 137.312 245.456 143.712L245.456 143.712zM609.104 447.296c-11.744-3.712-24.096 2.496-27.936 13.952-30.592 92.704-112.864 155.104-204.48 155.104-12.224 0-22.08 9.728-22.08 21.632 0 12.096 9.888 21.76 22.08 21.76 110.848 0 209.792-74.208 246.56-184.96C627.024 463.36 620.752 451.008 609.104 447.296L609.104 447.296zM896.624 360.736c-12.032-2.688-23.648 4.544-26.432 16.256-14.88 63.008-57.184 115.68-112.928 140.64-11.168 4.928-16.128 17.856-11.04 28.8 3.84 8 11.712 12.8 20.224 12.8 3.04 0 6.24-0.512 9.152-1.856 68.16-30.656 119.808-94.304 137.664-170.464C915.92 375.136 908.624 363.424 896.624 360.736L896.624 360.736zM1008.048 352.864c0-184.608-142.144-334.816-316.672-334.816-47.04 0-93.504 11.136-135.712 32.32C502.864 18.496 442.064 0 377.008 0 178 0 16.048 171.424 16.048 382.112c0 179.232 117.408 329.696 274.976 370.592l-21.44 26.368c-5.408 6.528-6.432 15.488-2.72 23.104 3.648 7.488 11.36 12.224 19.872 12.224l57.824 0c-24.288 49.12 1.056 76.96 20.224 97.888 7.616 8.448 14.816 16.32 19.232 25.344 5.408 10.624 6.688 19.52 3.968 26.624C384.176 973.952 372.816 980.48 368.656 981.952c-11.232 4.416-16.896 17.024-12.48 28.16C359.472 1018.624 367.92 1024 376.752 1024c2.656 0 5.344-0.512 7.936-1.408 3.328-1.216 32.736-13.248 44.448-42.624 5.12-12.992 8.384-34.368-5.472-61.888-7.136-14.336-17.152-25.216-25.92-34.752-20.192-22.336-28.576-31.36-2.848-67.072 0.448-0.64 0.512-1.344 0.896-1.92l40.224 0c8.32 0 15.968-4.48 19.68-11.84 3.84-7.296 3.104-16.128-1.696-22.656l-15.872-21.632C501.968 746.56 560.176 717.44 608.016 675.424c7.136 2.176 14.56 4.032 21.952 5.504l-9.344 10.112c-5.728 6.592-7.136 15.616-3.648 23.36 3.52 7.744 11.488 12.864 20.128 12.864l32.544 0c-29.568 58.592-5.664 89.632 14.112 115.104 7.328 9.536 14.496 18.496 18.912 28.992 16 37.056-7.456 51.936-14.88 55.392-11.104 5.12-15.904 17.856-10.848 28.736 3.648 8.128 11.776 12.864 20.128 12.864 2.912 0 6.112-0.768 9.024-1.984 20-8.896 65.696-46.4 37.28-111.968-6.752-15.616-16.256-27.904-24.608-38.656-18.912-24.512-29.312-38.016-2.912-81.248 1.568-2.368 2.208-4.864 2.656-7.36l25.28 0c8.512 0 16.096-4.608 19.808-12.032 3.968-7.36 2.976-16.32-2.016-22.72l-8.704-11.264C898.032 650.976 1008.048 515.328 1008.048 352.864L1008.048 352.864zM332.912 771.072l7.136-9.024c12.224 1.344 24.48 1.984 36.96 1.984 3.584 0 7.072-0.384 10.656-0.384l5.344 7.296L332.912 771.072 332.912 771.072zM597.936 591.072c-0.512 0.512-0.992 1.152-1.376 1.792-6.24 7.36-12.8 14.464-19.68 21.376-50.88 50.624-118.112 82.208-192.256 84.192-0.064 0-0.128 0-0.192 0l-35.744-1.728c-1.44-0.128-2.656 0-3.968 0.128-147.296-17.344-262.304-151.84-262.304-314.752 0-174.656 132.224-316.832 294.72-316.832 58.592 0 113.248 18.752 159.264 50.624 19.936 13.824 37.76 29.888 53.664 47.712 2.144 2.56 4.416 5.184 6.624 7.808 5.248 6.272 10.208 12.864 14.944 19.52 2.272 3.264 4.544 6.464 6.752 9.792 4.992 7.68 9.696 15.68 14.112 23.744 0.96 2.176 2.4 4.288 3.456 6.528 5.12 10.112 9.696 20.608 13.792 31.232 1.376 3.712 2.528 7.552 3.968 11.328 2.4 7.616 4.864 15.296 6.88 23.104 1.216 4.16 1.952 8.32 2.976 12.544 1.76 8.128 3.232 16.384 4.416 24.704 0.512 3.776 1.248 7.552 1.568 11.328 1.376 12.096 2.144 24.448 2.144 36.864C671.792 458.944 645.232 533.44 597.936 591.072L597.936 591.072zM691.344 622.368c-10.848 0-21.568-0.768-32.352-2.24 0.384-0.512 0.64-0.896 1.056-1.344 18.24-24.384 33.856-51.2 46.08-79.968 0.128-0.256 0.256-0.576 0.384-0.832 3.264-8.192 6.304-16.512 9.344-24.832 0.928-2.56 1.696-5.056 2.528-7.552 2.336-7.424 4.352-14.784 6.496-22.4 1.152-4.032 2.016-8.064 2.912-12.16 1.504-6.592 2.976-13.184 4.096-19.904 1.184-6.016 1.888-12.032 2.656-18.112 0.768-5.248 1.376-10.432 1.824-15.616 1.248-11.776 1.696-23.552 1.696-35.392 0-13.568-0.768-26.944-2.016-40.128-0.384-4.288-1.28-8.512-1.696-12.8-1.376-8.832-2.4-17.6-4.096-26.176-1.152-5.44-2.656-10.688-3.904-16.064-1.696-7.168-3.392-14.464-5.664-21.44-1.76-6.016-4.096-11.84-6.112-17.664-2.144-6.144-4.288-12.224-6.752-18.176-2.528-6.208-5.472-12.16-8.256-18.24-2.656-5.376-5.056-10.752-7.872-16-3.168-6.016-6.688-11.84-10.144-17.664-2.912-5.056-6.112-9.984-9.28-14.784-3.648-5.504-7.456-10.88-11.424-16.192-3.84-4.928-7.456-9.856-11.424-14.592-3.904-4.736-7.68-9.344-11.904-13.824-4.736-5.312-9.76-10.368-14.752-15.424-2.272-2.24-4.288-4.8-6.688-7.104 24.224-8.192 49.76-12.48 75.232-12.48 138.016 0 250.4 120.928 250.4 269.504C941.584 501.504 829.36 622.368 691.344 622.368L691.344 622.368z" p-id="1859" fill="#5fb878"></path></svg>