<?xml version="1.0" standalone="no"?><!DOCTYPE svg PUBLIC "-//W3C//DTD SVG 1.1//EN" "http://www.w3.org/Graphics/SVG/1.1/DTD/svg11.dtd"><svg t="1508989474904" class="icon" style="" viewBox="0 0 1024 1024" version="1.1" xmlns="http://www.w3.org/2000/svg" p-id="1673" xmlns:xlink="http://www.w3.org/1999/xlink" width="200" height="200"><defs><style type="text/css"></style></defs><path d="M109.80241 878.419277c-55.518072 0-101.166265-45.648193-101.166265-101.166265V109.80241c0-55.518072 45.648193-101.166265 101.166265-101.166265h801.92771c55.518072 0 101.166265 45.648193 101.166266 101.166265v668.684337c0 55.518072-45.648193 101.166265-101.166266 101.166265h-299.79759v65.387952h54.284337c18.506024 0 34.544578 14.804819 34.544579 34.544578 0 18.506024-14.804819 34.544578-34.544579 34.544578h-312.134939c-18.506024 0-34.544578-14.804819-34.544579-34.544578 0-18.506024 14.804819-34.544578 34.544579-34.544578h54.284337v-65.387952h-298.563855z m433.040963 0h-65.387951v65.387952h65.387951v-65.387952z m-465.118072-101.166265a33.705639 33.705639 0 0 0 33.310844 33.310843h801.92771a33.705639 33.705639 0 0 0 33.310844-33.310843V745.175904h-867.315663v32.077108z m866.081928-101.166265v-567.518072a33.705639 33.705639 0 0 0-33.310843-33.310844h-801.927711a33.705639 33.705639 0 0 0-33.310844 33.310844v567.518072h868.549398z m-507.06506-122.139759l-32.077109-86.361446h-114.737349l-30.843374 86.361446h-71.556626l129.542169-341.744578h60.453012l129.542168 341.744578h-70.322891z m-125.840964-146.814458h71.556626l-35.778313-99.93253-35.778313 99.93253z m238.110843-194.93012h102.4c50.583133 0 93.763855 14.804819 128.308434 44.414457 34.544578 30.843373 51.816867 71.556627 51.816867 122.13976 0 51.816867-17.272289 94.99759-51.816867 127.074698-34.544578 32.077108-77.725301 48.115663-132.009639 48.115663h-98.698795V212.20241z m65.387952 281.291566h33.310843c37.012048 0 65.387952-9.86988 86.361446-29.609639 19.739759-19.739759 29.609639-46.881928 29.609639-83.893976 0-35.778313-9.86988-62.920482-30.843374-80.192771-20.973494-18.506024-48.115663-27.142169-83.893976-27.142168h-35.778313v220.838554z" p-id="1674" fill="#5fb878"></path></svg>