<?xml version="1.0" standalone="no"?><!DOCTYPE svg PUBLIC "-//W3C//DTD SVG 1.1//EN" "http://www.w3.org/Graphics/SVG/1.1/DTD/svg11.dtd"><svg t="1504420773812" class="icon" style="" viewBox="0 0 1024 1024" version="1.1" xmlns="http://www.w3.org/2000/svg" p-id="3237" xmlns:xlink="http://www.w3.org/1999/xlink" width="200" height="200"><defs><style type="text/css"></style></defs><path d="M226.524 416.045c-47.964 0-86.841 38.973-86.841 87.055 0 48.077 38.876 87.050 86.841 87.050 47.959 0 86.841-38.973 86.841-87.050 0-48.082-38.881-87.055-86.841-87.055zM516.004 416.045c-47.964 0-86.839 38.973-86.839 87.055 0 48.077 38.876 87.050 86.841 87.050 47.959 0 86.839-38.973 86.839-87.050 0-48.082-38.886-87.055-86.839-87.055zM805.479 416.045c-47.964 0-86.851 38.973-86.851 87.055 0 48.077 38.886 87.050 86.851 87.050 47.959 0 86.841-38.973 86.841-87.050 0-48.082-38.881-87.055-86.841-87.055z" p-id="3238" fill="#5fb878"></path></svg>