<?xml version="1.0" standalone="no"?><!DOCTYPE svg PUBLIC "-//W3C//DTD SVG 1.1//EN" "http://www.w3.org/Graphics/SVG/1.1/DTD/svg11.dtd"><svg t="1504278906757" class="icon" style="" viewBox="0 0 1024 1024" version="1.1" xmlns="http://www.w3.org/2000/svg" p-id="3661" xmlns:xlink="http://www.w3.org/1999/xlink" width="200" height="200"><defs><style type="text/css"></style></defs><path d="M508.928 553.704727h-91.554909v-45.335272h101.096727v-53.061819h-54.178909c7.214545-16.197818 13.917091-33.559273 20.619636-52.549818l-51.898181-18.385454a713.960727 713.960727 0 0 1-21.829819 70.888727h-49.198545a647.307636 647.307636 0 0 0-24.017455-70.888727l-51.386181 19.549091c8.890182 15.639273 16.709818 32.907636 23.458909 51.386181H253.114182v53.061819h106.170182v45.335272H262.050909v53.061818h97.233455v132.375273c0 10.612364-6.749091 16.244364-18.990546 16.244364-6.749091 0-14.522182-1.722182-22.900363-3.909818l12.8 53.573818h29.090909c38.493091 0 58.088727-17.314909 58.088727-51.944727v-146.33891h91.554909v-53.061818z" fill="#FA4E57" p-id="3662"></path><path d="M293.376 628.549818a416.674909 416.674909 0 0 1-50.269091 128.465455l48.546909 30.72c23.458909-41.890909 41.378909-90.996364 54.178909-148.014546l-52.456727-11.170909zM515.072 328.657455h-101.655273a756.782545 756.782545 0 0 0-19.595636-48.64l-60.322909 10.100363c7.819636 11.729455 15.080727 24.529455 21.829818 38.539637H258.746182v53.573818h256.372363v-53.573818zM474.251636 625.198545l-47.988363 12.846546c12.288 32.954182 22.900364 67.025455 31.278545 101.701818l49.198546-18.990545a939.147636 939.147636 0 0 0-32.488728-95.557819z" fill="#FA4E57" p-id="3663"></path><path d="M596.107636 370.501818c57.483636-3.304727 109.986909-12.846545 157.463273-28.485818l-28.392727-52.456727c-54.784 21.178182-116.177455 32.349091-185.390546 33.466182v242.455272c-2.280727 82.106182-19.549091 146.338909-50.874181 192.698182l41.844363 44.125091c40.727273-59.205818 62.603636-138.007273 65.442909-236.823273v-53.154909h60.276364v291.048727h57.530182v-291.048727h51.386182V457.076364h-169.192728v-86.574546h-0.093091z" fill="#FA4E57" p-id="3664"></path><path d="M512 0C229.282909 0 0 229.282909 0 512v512h512c282.717091 0 512-229.282909 512-512S794.717091 0 512 0z m0 954.181818H69.818182V512c0-243.805091 198.376727-442.181818 442.181818-442.181818s442.181818 198.376727 442.181818 442.181818-198.376727 442.181818-442.181818 442.181818z" fill="#FA4E57" p-id="3665"></path></svg>