<?xml version="1.0" standalone="no"?><!DOCTYPE svg PUBLIC "-//W3C//DTD SVG 1.1//EN" "http://www.w3.org/Graphics/SVG/1.1/DTD/svg11.dtd"><svg t="1504193666845" class="icon" style="" viewBox="0 0 1024 1024" version="1.1" xmlns="http://www.w3.org/2000/svg" p-id="4483" xmlns:xlink="http://www.w3.org/1999/xlink" width="200" height="200"><defs><style type="text/css"></style></defs><path d="M153.6 102.4h716.8a153.6 153.6 0 0 1 153.6 153.6v460.8a153.6 153.6 0 0 1-153.6 153.6h-51.2v153.6l-204.8-153.6H153.6a153.6 153.6 0 0 1-153.6-153.6V256a153.6 153.6 0 0 1 153.6-153.6z m256 256v256h51.2V358.4H409.6zM307.2 358.4v256h51.2V358.4H307.2zM153.6 358.4v256h51.2V358.4H153.6z m307.2 0v51.2h153.6V358.4H460.8z m0 102.4v51.2h153.6V460.8H460.8z m0 102.4v51.2h153.6v-51.2H460.8zM204.8 409.6v102.4h51.2V409.6H204.8z m51.2 51.2v102.4h51.2V460.8H256z m409.6-102.4v153.6h51.2V358.4h-51.2z m51.2 153.6v102.4h51.2v-102.4h-51.2z m51.2-153.6v153.6h51.2V358.4h-51.2z m51.2 153.6v102.4h51.2v-102.4h-51.2z m51.2-153.6v153.6h51.2V358.4h-51.2z" p-id="4484" fill="#5fb878"></path></svg>