<?xml version="1.0" standalone="no"?><!DOCTYPE svg PUBLIC "-//W3C//DTD SVG 1.1//EN" "http://www.w3.org/Graphics/SVG/1.1/DTD/svg11.dtd"><svg t="1504455440941" class="icon" style="" viewBox="0 0 1024 1024" version="1.1" xmlns="http://www.w3.org/2000/svg" p-id="10244" xmlns:xlink="http://www.w3.org/1999/xlink" width="200" height="200"><defs><style type="text/css"></style></defs><path d="M895.765479 94.576237H127.978777A127.658724 127.658724 0 0 0 0.085426 222.469588v512a127.914681 127.914681 0 0 0 127.893351 127.893352h251.2008l132.479253 161.63706 132.479254-161.63706h251.627395a127.658724 127.658724 0 0 0 127.893351-127.893352V222.469588a127.658724 127.658724 0 0 0-127.893351-127.893351zM221.723153 575.328112c-54.177637 0-97.903683-43.747375-97.903683-97.903683s43.726046-97.903683 97.903683-97.903682 97.903683 43.726046 97.903683 97.903682-43.747375 97.903683-97.903683 97.903683z m288.69855 0c-54.177637 0-97.903683-43.747375-97.903683-97.903683s43.726046-97.903683 97.903683-97.903682 97.903683 43.726046 97.903683 97.903682-43.747375 97.903683-97.903683 97.903683z m288.271955 0c-54.156307 0-97.903683-43.747375-97.903683-97.903683s43.747375-97.903683 97.903683-97.903682c54.177637 0 97.903683 43.726046 97.903682 97.903682s-43.726046 97.903683-97.903682 97.903683z" p-id="10245" fill="#5fb878"></path></svg>