<?xml version="1.0" encoding="utf-8"?>
<!-- Generator: Adobe Illustrator 18.0.0, SVG Export Plug-In . SVG Version: 6.00 Build 0)  -->
<!DOCTYPE svg PUBLIC "-//W3C//DTD SVG 1.1//EN" "http://www.w3.org/Graphics/SVG/1.1/DTD/svg11.dtd">
<svg version="1.1" id="图形" xmlns="http://www.w3.org/2000/svg" xmlns:xlink="http://www.w3.org/1999/xlink" x="0px" y="0px"
	 width="1024px" height="1024px" viewBox="0 0 1024 1024" enable-background="new 0 0 1024 1024" xml:space="preserve">
<path fill="#57C6E8" d="M512.2,0.2C230,0.2,1.2,229,1.2,511.3c0,282.2,228.8,511,511,511c282.2,0,511.1-228.8,511.1-511
	C1023.2,229,794.4,0.2,512.2,0.2z"/>
<path fill="#FFFFFF" d="M792.6,675.2c-9.5,12.6-35.6-2.5-54.3-42.8c-5.2,18.7-17.2,47.2-44.3,83.3c45.4,10.4,58.3,55.1,43,79.6
	c-10.8,17.2-35.4,31.4-77.9,31.4c-75.6,0-109-20.3-123.9-34.5c-3-3.1-7.4-4.6-13-4.6c-5.6,0-10,1.5-13,4.6
	c-14.9,14.2-48.3,34.5-123.9,34.5c-42.5,0-67.2-14.2-77.9-31.4c-15.3-24.5-2.3-69.2,43.1-79.6c-27.1-36.2-39.1-64.7-44.3-83.3
	c-18.7,40.3-44.8,55.4-54.3,42.8c-7.8-10.4-10.3-33.6-9.5-49.6c4.4-60.8,45.2-111.7,68.8-138c-3.3-7.7-11.2-52,19.5-82.3
	c0-0.7,0-1.4,0-2.1c0-119.4,85-205.3,191.6-205.7c106.6,0.4,191.6,86.3,191.6,205.7c0,0.7,0,1.4,0,2.1
	c30.8,30.3,22.8,74.6,19.5,82.3c23.6,26.3,64.4,77.3,68.8,138C802.8,641.6,800.4,664.8,792.6,675.2z"/>
</svg>
