<?xml version="1.0" standalone="no"?><!DOCTYPE svg PUBLIC "-//W3C//DTD SVG 1.1//EN" "http://www.w3.org/Graphics/SVG/1.1/DTD/svg11.dtd"><svg t="1504422117693" class="icon" style="" viewBox="0 0 1024 1024" version="1.1" xmlns="http://www.w3.org/2000/svg" p-id="4667" xmlns:xlink="http://www.w3.org/1999/xlink" width="200" height="200"><defs><style type="text/css"></style></defs><path d="M965.632 0H58.368C29.696 0 6.144 23.552 6.144 52.224v707.584c0 28.672 23.552 52.224 52.224 52.224h350.72v153.6H312.32c-16.384 0-29.184 13.312-29.184 29.184 0 16.384 13.312 29.184 29.184 29.184h399.872c16.384 0 29.184-13.312 29.184-29.184 0-16.384-13.312-29.184-29.184-29.184h-97.28v-153.6h350.72c28.672 0 52.224-23.552 52.224-52.224V52.224C1017.856 23.552 994.304 0 965.632 0z m-409.6 965.12h-88.064v-153.6h88.064v153.6z m402.944-211.968H65.024V58.88h893.952v694.272z" p-id="4668" fill="#5fb878"></path><path d="M258.048 401.408l70.144-70.144c10.24-10.24 10.24-26.624 0-36.864s-26.624-10.24-36.864 0l-88.064 88.064c-5.12 5.12-7.68 11.776-7.68 18.944 0 6.656 2.56 13.824 7.68 18.944l88.576 88.064c10.24 10.24 26.624 10.24 36.864 0s10.24-26.624 0-36.864l-70.656-70.144zM450.56 520.704l-6.656-3.584c-12.288-7.168-16.384-22.528-9.728-34.816l104.448-183.808c7.168-12.288 22.528-16.384 34.816-9.728l6.656 3.584c12.288 7.168 16.384 22.528 9.728 34.816L485.376 510.976c-6.656 12.288-22.528 16.896-34.816 9.728z m371.712-138.24l-88.576-88.576c-10.24-10.24-26.624-10.24-36.864 0s-10.24 26.624 0 36.864l70.144 70.144-70.144 70.144c-10.24 10.24-10.24 26.624 0 36.864s26.624 10.24 36.864 0l88.576-88.064c5.12-5.12 7.68-11.776 7.68-18.944 0-6.656-2.048-13.312-7.68-18.432z" p-id="4669" fill="#5fb878"></path></svg>