<?xml version="1.0" standalone="no"?><!DOCTYPE svg PUBLIC "-//W3C//DTD SVG 1.1//EN" "http://www.w3.org/Graphics/SVG/1.1/DTD/svg11.dtd"><svg t="1504443769484" class="icon" style="" viewBox="0 0 1024 1024" version="1.1" xmlns="http://www.w3.org/2000/svg" p-id="1968" xmlns:xlink="http://www.w3.org/1999/xlink" width="200" height="200"><defs><style type="text/css"></style></defs><path d="M490.69323 441.371406 490.69323 46.308699 297.444924 46.308699l0 397.211651 101.663424-85.547375L490.69323 441.371406zM528.083815 46.308699l0 43.708478L528.083815 526.040784 398.135184 407.6637 260.054339 523.889795 260.054339 50.290383l0-3.982708-31.090089 0c-89.455381 0-149.558248 60.104913-149.558248 149.559271L79.406003 671.954015l0 67.768453c26.004257-24.826432 64.591087-39.035038 112.169709-39.035038l299.119565 0 486.012116 0L976.707392 46.308699 528.083815 46.308699zM80.153016 830.243111c0.020466 0.189312 0.074701 0.393973 0.094144 0.618077l-0.149403 0c3.75758 37.968753 27.088962 112.861464 152.082744 112.861464l744.524844 0L976.705346 738.078015l-785.131681 0C121.842511 738.078015 80.227718 772.514315 80.153016 830.243111z" p-id="1969" fill="#5fb878"></path></svg>