<?xml version="1.0" standalone="no"?><!DOCTYPE svg PUBLIC "-//W3C//DTD SVG 1.1//EN" "http://www.w3.org/Graphics/SVG/1.1/DTD/svg11.dtd"><svg t="1504444003613" class="icon" style="" viewBox="0 0 1024 1024" version="1.1" xmlns="http://www.w3.org/2000/svg" p-id="2437" xmlns:xlink="http://www.w3.org/1999/xlink" width="200" height="200"><defs><style type="text/css"></style></defs><path d="M266.820267 757.691733c0 8.6016 7.5776 16.1792 16.213333 16.1792h460.0832c8.6016 0 16.1792-7.5776 17.271467-16.1792V347.306667H266.820267v410.385066z m305.629866-273.271466c-8.635733-8.6016-8.635733-21.572267 0-30.208s21.572267-8.635733 30.242134 0l102.6048 100.420266a20.821333 20.821333 0 0 1 0 30.208l-102.6048 102.6048a21.026133 21.026133 0 0 1-15.086934 6.485334 21.162667 21.162667 0 0 1-15.121066-6.485334 20.821333 20.821333 0 0 1 0-30.208l86.391466-86.4256-86.4256-86.391466zM320.853333 551.424l102.6048-102.638933a20.923733 20.923733 0 0 1 30.208 0c8.635733 8.635733 7.5776 24.8832 0 32.426666l-86.391466 86.357334 86.391466 86.4256a20.8896 20.8896 0 0 1 0 30.242133 21.367467 21.367467 0 0 1-15.121066 6.4512 21.265067 21.265067 0 0 1-15.086934-6.4512L320.853333 581.666133c-4.3008-4.369067-6.485333-9.728-6.485333-15.121066s2.1504-10.786133 6.485333-15.121067z" p-id="2438" fill="#5fb878"></path><path d="M833.809067 0H190.190933A190.190933 190.190933 0 0 0 0 190.190933v643.584A190.225067 190.225067 0 0 0 190.190933 1024h643.584A190.2592 190.2592 0 0 0 1024 833.809067V190.190933A190.225067 190.225067 0 0 0 833.809067 0z m-32.392534 756.599467c0 32.392533-25.9072 59.392-59.357866 59.392H281.975467c-32.392533 0-59.392-25.941333-59.392-59.392V267.3664c0-32.392533 26.999467-59.357867 60.450133-59.357867h460.0832c32.3584 0 59.357867 26.965333 58.2656 59.357867v489.233067z" p-id="2439" fill="#5fb878"></path></svg>