<?xml version="1.0" standalone="no"?><!DOCTYPE svg PUBLIC "-//W3C//DTD SVG 1.1//EN" "http://www.w3.org/Graphics/SVG/1.1/DTD/svg11.dtd"><svg t="1504444071746" class="icon" style="" viewBox="0 0 1024 1024" version="1.1" xmlns="http://www.w3.org/2000/svg" p-id="3196" xmlns:xlink="http://www.w3.org/1999/xlink" width="200" height="200"><defs><style type="text/css"></style></defs><path d="M927.932014 465.799772c-69.598124-152.949484-215.290321-99.417267-257.048377-76.474742-41.759079 22.941502-82.591043 30.589692-82.591043 30.589692s-41.758056-7.649214-83.518159-30.589692c-41.758056-22.943548-187.91381-76.474742-257.511935 76.474742-68.898183 151.410432-93.357248 428.442956 27.839045 466.491526C372.538715 962.880991 421.258323 825.227887 435.177334 809.933553c13.920034-15.295358 118.316709-30.589692 153.11526-30.589692 30.503734 0 138.383744 15.294334 152.305824 30.589692 13.920034 15.295358 61.826114 152.948461 159.263284 122.357745 121.196293-38.048571 96.968495-315.081095 28.070312-466.491526zM505.178641 594.114183c0 15.132652-12.267395 27.40107-27.40107 27.40107h-41.101094v41.101093c0 15.132652-12.267395 27.40107-27.400046 27.40107h-13.700024c-15.133675 0-27.40107-12.268418-27.40107-27.40107v-41.101093H327.07322c-15.133675 0-27.40107-12.268418-27.40107-27.40107v-13.700024c0-15.133675 12.267395-27.40107 27.40107-27.40107h41.101094V511.911996c0-15.133675 12.267395-27.40107 27.40107-27.40107H409.275407c15.132652 0 27.400047 12.267395 27.400047 27.40107v41.101093h41.101094c15.133675 0 27.40107 12.267395 27.40107 27.40107v13.700024z m212.356502 82.20321c-26.483164 0-47.951105-21.468964-47.951105-47.951105 0-26.483164 21.468964-47.951105 47.951105-47.951105 26.483164 0 47.951105 21.467941 47.951105 47.951105 0.001023 26.482141-21.466917 47.951105-47.951105 47.951105z m95.903234-95.903234c-26.483164 0-47.951105-21.468964-47.951105-47.951105 0-26.483164 21.468964-47.951105 47.951105-47.951105 26.483164 0 47.951105 21.467941 47.951105 47.951105 0 26.482141-21.467941 47.951105-47.951105 47.951105zM464.447984 840.438311a988.176097 988.176097 0 0 0-4.306072 7.933693c-22.653953 42.046628-69.798692 129.548518-157.402913 129.548518-13.161764 0-26.592658-2.119267-39.915082-6.30459-38.32384-12.031011-76.432787-39.10053-95.707782-82.42936-9.628288-21.639856-17.946744-57.111742-17.946744-88.992847v-60.696384c-0.00307-3.668553-0.063445-7.30129 0-10.998495V169.401178h451.895087v204.647937c13.371542-4.100388 31.692816-10.766205 50.067303-20.863167 1.299599-0.714268 3.010567-1.6158 4.911869-2.592035V128.299061c0-52.966329-43.076074-95.903234-96.211248-95.903233H190.401468c-53.136198 0-96.211249 42.936905-96.211249 95.903233v767.224846c0 52.965306 43.076074 95.903234 96.211249 95.903233h369.42991c53.136198 0 96.211249-42.937928 96.211249-95.903233v-67.260893c-26.196639-4.375657-53.768601-7.712659-67.74901-7.712659-30.377868 0-101.473089 11.691273-123.845633 19.887956z" p-id="3197" fill="#5fb878"></path></svg>