<?xml version="1.0" standalone="no"?><!DOCTYPE svg PUBLIC "-//W3C//DTD SVG 1.1//EN" "http://www.w3.org/Graphics/SVG/1.1/DTD/svg11.dtd"><svg t="1504444097499" class="icon" style="" viewBox="0 0 1026 1024" version="1.1" xmlns="http://www.w3.org/2000/svg" p-id="3920" xmlns:xlink="http://www.w3.org/1999/xlink" width="200.390625" height="200"><defs><style type="text/css"></style></defs><path d="M93.675953 1021.871102H21.293416c-12.773389 0-21.288981-8.515593-21.288981-21.288981V229.920998c0-12.773389 8.515593-21.288981 21.288981-21.288981h70.253639c12.773389 0 21.288981 8.515593 21.288981 21.288981v770.661123c2.128898 12.773389-8.515593 21.288981-19.160083 21.288981zM979.297574 0H195.863063c-23.417879 0-42.577963 19.160083-42.577963 42.577963V981.422037c0 23.417879 19.160083 42.577963 42.577963 42.577963H981.426473c23.417879 0 42.577963-19.160083 42.577962-42.577963V42.577963c-2.128898-23.417879-19.160083-42.577963-44.706861-42.577963zM474.748718 172.440748h151.151767v38.320167H513.068884v57.480249h112.831601v38.320167H513.068884V364.04158h112.831601v38.320166h-151.151767V172.440748zM246.956618 172.440748h57.48025l76.640332 151.151768V172.440748h57.48025v227.7921h-57.48025l-76.640332-155.409563 2.128898 155.409563h-57.48025V172.440748z m263.983368 681.247402H246.956618v-57.48025h263.983368V853.68815z m0-151.151767H246.956618v-57.48025h263.983368v57.48025z m0-151.151768H246.956618v-57.480249h263.983368v57.480249zM889.883853 853.68815H587.580319V493.904366h302.303534V853.68815z m0-453.455302H832.403604l-40.449065-172.440748-36.191268 172.440748h-57.48025L664.220651 172.440748h38.320167l38.320166 170.311851 38.320166-170.311851h38.320167l38.320166 170.311851 38.320166-170.311851h38.320167l-42.577963 227.7921z" fill="#5fb878" p-id="3921"></path></svg>