<?xml version="1.0" standalone="no"?><!DOCTYPE svg PUBLIC "-//W3C//DTD SVG 1.1//EN" "http://www.w3.org/Graphics/SVG/1.1/DTD/svg11.dtd"><svg t="1504419174429" class="icon" style="" viewBox="0 0 1024 1024" version="1.1" xmlns="http://www.w3.org/2000/svg" p-id="1133" xmlns:xlink="http://www.w3.org/1999/xlink" width="200" height="200"><defs><style type="text/css"></style></defs><path d="M403.720901 725.756385c0-59.802014 48.476061-108.278075 108.278075-108.278075 59.813271 0 108.281145 48.476061 108.281145 108.278075 0 59.800991-48.467875 108.281145-108.281145 108.281145C452.195939 834.036507 403.720901 785.556353 403.720901 725.756385L403.720901 725.756385zM647.350664 509.201258c0-59.802014 48.470945-108.282169 108.277052-108.282169 59.806107 0 108.281145 48.480154 108.281145 108.282169 0 59.805084-48.475038 108.277052-108.281145 108.277052C695.821609 617.47831 647.350664 569.006342 647.350664 509.201258L647.350664 509.201258zM403.720901 292.647153c0-59.810201 48.476061-108.278075 108.278075-108.278075 59.813271 0 108.281145 48.467875 108.281145 108.278075 0 59.805084-48.467875 108.271936-108.281145 108.271936C452.195939 400.920112 403.720901 352.452237 403.720901 292.647153L403.720901 292.647153zM187.165774 509.201258c0-59.802014 48.471968-108.282169 108.278075-108.282169 59.809177 0 108.277052 48.480154 108.277052 108.282169 0 59.805084-48.467875 108.277052-108.277052 108.277052C235.637742 617.47831 187.165774 569.006342 187.165774 509.201258L187.165774 509.201258zM457.858916 509.201258c0-29.906124 24.242124-54.142108 54.139038-54.142108 29.909194 0 54.142108 24.237007 54.142108 54.142108 0 29.909194-24.233937 54.138014-54.142108 54.138014C482.101039 563.340295 457.858916 539.110451 457.858916 509.201258L457.858916 509.201258zM742.368738 876.127138c26.662243 38.921451 89.190345 66.190515 162.138774 66.190515 13.982456 0 40.606837-84.047208 40.606837-84.047208-49.974182-7.265474-91.65549-27.678386-115.043153-54.956659 71.446215-77.245292 115.043153-180.585915 115.043153-294.112528 0-239.20601-193.911408-433.113325-433.116395-433.113325-239.201917 0-433.112302 193.907315-433.112302 433.113325 0 239.204987 193.911408 433.116395 433.112302 433.116395C596.636632 942.317653 675.652244 918.097018 742.368738 876.127138L742.368738 876.127138zM742.368738 876.127138" fill="#5fb878" p-id="1134"></path></svg>